<mxfile host="app.diagrams.net" modified="2024-07-05T20:22:08.574Z" agent="Mozilla/5.0 (Windows NT 10.0; Win64; x64) AppleWebKit/537.36 (KHTML, like Gecko) Chrome/126.0.0.0 Safari/537.36" etag="rI7nVMg3_K8KxEikvsW4" version="24.2.7" type="device">
  <diagram name="Page-1" id="giUtVMuzjqS_w9yIZhkG">
    <mxGraphModel dx="2774" dy="1513" grid="1" gridSize="10" guides="1" tooltips="1" connect="1" arrows="1" fold="1" page="1" pageScale="1" pageWidth="690" pageHeight="980" math="0" shadow="0">
      <root>
        <mxCell id="0" />
        <mxCell id="1" parent="0" />
        <mxCell id="TGHZwT-StXT5-AxZotV--1" value="PC" style="rounded=0;whiteSpace=wrap;html=1;" vertex="1" parent="1">
          <mxGeometry x="220" y="450" width="40" height="100" as="geometry" />
        </mxCell>
        <mxCell id="TGHZwT-StXT5-AxZotV--2" value="" style="triangle;whiteSpace=wrap;html=1;" vertex="1" parent="1">
          <mxGeometry x="220" y="530" width="20" height="20" as="geometry" />
        </mxCell>
        <mxCell id="TGHZwT-StXT5-AxZotV--3" value="" style="ellipse;whiteSpace=wrap;html=1;aspect=fixed;" vertex="1" parent="1">
          <mxGeometry x="230" y="550" width="10" height="10" as="geometry" />
        </mxCell>
        <mxCell id="TGHZwT-StXT5-AxZotV--4" value="" style="endArrow=classic;html=1;rounded=0;" edge="1" parent="1">
          <mxGeometry width="50" height="50" relative="1" as="geometry">
            <mxPoint x="160" y="480" as="sourcePoint" />
            <mxPoint x="220" y="480" as="targetPoint" />
          </mxGeometry>
        </mxCell>
        <mxCell id="TGHZwT-StXT5-AxZotV--5" value="load_startup_address" style="text;html=1;align=center;verticalAlign=middle;whiteSpace=wrap;rounded=0;" vertex="1" parent="1">
          <mxGeometry x="40" y="460" width="120" height="30" as="geometry" />
        </mxCell>
        <mxCell id="TGHZwT-StXT5-AxZotV--6" value="" style="endArrow=classic;html=1;rounded=0;" edge="1" parent="1">
          <mxGeometry width="50" height="50" relative="1" as="geometry">
            <mxPoint x="160" y="510" as="sourcePoint" />
            <mxPoint x="220" y="510" as="targetPoint" />
          </mxGeometry>
        </mxCell>
        <mxCell id="TGHZwT-StXT5-AxZotV--7" value="startup_address" style="text;html=1;align=center;verticalAlign=middle;whiteSpace=wrap;rounded=0;" vertex="1" parent="1">
          <mxGeometry x="40" y="490" width="120" height="30" as="geometry" />
        </mxCell>
        <mxCell id="TGHZwT-StXT5-AxZotV--8" value="" style="endArrow=none;html=1;rounded=0;" edge="1" parent="1">
          <mxGeometry width="50" height="50" relative="1" as="geometry">
            <mxPoint x="180" y="520" as="sourcePoint" />
            <mxPoint x="200" y="500" as="targetPoint" />
          </mxGeometry>
        </mxCell>
        <mxCell id="TGHZwT-StXT5-AxZotV--9" value="31:0" style="text;html=1;align=center;verticalAlign=middle;whiteSpace=wrap;rounded=0;" vertex="1" parent="1">
          <mxGeometry x="180" y="490" width="20" height="10" as="geometry" />
        </mxCell>
        <mxCell id="TGHZwT-StXT5-AxZotV--11" value="" style="endArrow=classic;html=1;rounded=0;entryX=0.011;entryY=0.427;entryDx=0;entryDy=0;entryPerimeter=0;" edge="1" parent="1" target="TGHZwT-StXT5-AxZotV--14">
          <mxGeometry width="50" height="50" relative="1" as="geometry">
            <mxPoint x="260" y="480" as="sourcePoint" />
            <mxPoint x="360" y="480" as="targetPoint" />
          </mxGeometry>
        </mxCell>
        <mxCell id="TGHZwT-StXT5-AxZotV--12" value="" style="endArrow=none;html=1;rounded=0;" edge="1" parent="1">
          <mxGeometry width="50" height="50" relative="1" as="geometry">
            <mxPoint x="320" y="490" as="sourcePoint" />
            <mxPoint x="340" y="470" as="targetPoint" />
          </mxGeometry>
        </mxCell>
        <mxCell id="TGHZwT-StXT5-AxZotV--13" value="31:0" style="text;html=1;align=center;verticalAlign=middle;whiteSpace=wrap;rounded=0;" vertex="1" parent="1">
          <mxGeometry x="320" y="460" width="20" height="10" as="geometry" />
        </mxCell>
        <mxCell id="TGHZwT-StXT5-AxZotV--28" style="edgeStyle=orthogonalEdgeStyle;rounded=0;orthogonalLoop=1;jettySize=auto;html=1;exitX=1;exitY=0.5;exitDx=0;exitDy=0;entryX=0;entryY=0.5;entryDx=0;entryDy=0;" edge="1" parent="1" source="TGHZwT-StXT5-AxZotV--14" target="TGHZwT-StXT5-AxZotV--45">
          <mxGeometry relative="1" as="geometry">
            <mxPoint x="670" y="494.6896551724137" as="targetPoint" />
            <Array as="points">
              <mxPoint x="650" y="495" />
              <mxPoint x="650" y="205" />
            </Array>
          </mxGeometry>
        </mxCell>
        <mxCell id="TGHZwT-StXT5-AxZotV--14" value="Instruction Memory" style="rounded=0;whiteSpace=wrap;html=1;" vertex="1" parent="1">
          <mxGeometry x="420" y="395" width="160" height="200" as="geometry" />
        </mxCell>
        <mxCell id="TGHZwT-StXT5-AxZotV--15" value="&lt;div style=&quot;text-align: center;&quot;&gt;&lt;span style=&quot;background-color: initial;&quot;&gt;&amp;nbsp;instruction_address&lt;/span&gt;&lt;/div&gt;" style="text;whiteSpace=wrap;html=1;" vertex="1" parent="1">
          <mxGeometry x="280" y="485" width="120" height="40" as="geometry" />
        </mxCell>
        <mxCell id="TGHZwT-StXT5-AxZotV--24" style="edgeStyle=orthogonalEdgeStyle;rounded=0;orthogonalLoop=1;jettySize=auto;html=1;exitX=1;exitY=0.5;exitDx=0;exitDy=0;exitPerimeter=0;" edge="1" parent="1" source="TGHZwT-StXT5-AxZotV--16" target="TGHZwT-StXT5-AxZotV--1">
          <mxGeometry relative="1" as="geometry">
            <Array as="points">
              <mxPoint x="580" y="270" />
              <mxPoint x="580" y="140" />
              <mxPoint x="240" y="140" />
            </Array>
          </mxGeometry>
        </mxCell>
        <mxCell id="TGHZwT-StXT5-AxZotV--16" value="Add" style="html=1;shadow=0;dashed=0;align=center;verticalAlign=middle;shape=mxgraph.arrows2.arrow;dy=0;dx=30;notch=30;" vertex="1" parent="1">
          <mxGeometry x="350" y="240" width="100" height="60" as="geometry" />
        </mxCell>
        <mxCell id="TGHZwT-StXT5-AxZotV--18" value="" style="shape=waypoint;sketch=0;fillStyle=solid;size=6;pointerEvents=1;points=[];fillColor=none;resizable=0;rotatable=0;perimeter=centerPerimeter;snapToPoint=1;" vertex="1" parent="1">
          <mxGeometry x="280" y="470" width="20" height="20" as="geometry" />
        </mxCell>
        <mxCell id="TGHZwT-StXT5-AxZotV--21" value="" style="endArrow=classic;html=1;rounded=0;entryX=0.178;entryY=0.653;entryDx=0;entryDy=0;entryPerimeter=0;" edge="1" parent="1" source="TGHZwT-StXT5-AxZotV--18" target="TGHZwT-StXT5-AxZotV--16">
          <mxGeometry width="50" height="50" relative="1" as="geometry">
            <mxPoint x="260" y="550" as="sourcePoint" />
            <mxPoint x="310" y="500" as="targetPoint" />
            <Array as="points">
              <mxPoint x="290" y="279" />
            </Array>
          </mxGeometry>
        </mxCell>
        <mxCell id="TGHZwT-StXT5-AxZotV--23" value="" style="edgeStyle=orthogonalEdgeStyle;rounded=0;orthogonalLoop=1;jettySize=auto;html=1;entryX=0.123;entryY=0.249;entryDx=0;entryDy=0;entryPerimeter=0;" edge="1" parent="1" source="TGHZwT-StXT5-AxZotV--22" target="TGHZwT-StXT5-AxZotV--16">
          <mxGeometry relative="1" as="geometry" />
        </mxCell>
        <mxCell id="TGHZwT-StXT5-AxZotV--22" value="4" style="text;html=1;align=center;verticalAlign=middle;whiteSpace=wrap;rounded=0;" vertex="1" parent="1">
          <mxGeometry x="280" y="240" width="20" height="30" as="geometry" />
        </mxCell>
        <mxCell id="TGHZwT-StXT5-AxZotV--25" value="" style="endArrow=none;html=1;rounded=0;" edge="1" parent="1">
          <mxGeometry width="50" height="50" relative="1" as="geometry">
            <mxPoint x="500" y="280" as="sourcePoint" />
            <mxPoint x="520" y="260" as="targetPoint" />
          </mxGeometry>
        </mxCell>
        <mxCell id="TGHZwT-StXT5-AxZotV--26" value="31:0" style="text;html=1;align=center;verticalAlign=middle;whiteSpace=wrap;rounded=0;" vertex="1" parent="1">
          <mxGeometry x="500" y="250" width="20" height="10" as="geometry" />
        </mxCell>
        <mxCell id="TGHZwT-StXT5-AxZotV--27" value="&lt;div style=&quot;text-align: center;&quot;&gt;&lt;span style=&quot;background-color: initial;&quot;&gt;&amp;nbsp;incr_instruction_address&lt;/span&gt;&lt;/div&gt;" style="text;whiteSpace=wrap;html=1;" vertex="1" parent="1">
          <mxGeometry x="460" y="290" width="120" height="40" as="geometry" />
        </mxCell>
        <mxCell id="TGHZwT-StXT5-AxZotV--32" value="" style="endArrow=none;html=1;rounded=0;" edge="1" parent="1">
          <mxGeometry width="50" height="50" relative="1" as="geometry">
            <mxPoint x="610" y="505" as="sourcePoint" />
            <mxPoint x="630" y="485" as="targetPoint" />
          </mxGeometry>
        </mxCell>
        <mxCell id="TGHZwT-StXT5-AxZotV--33" value="31:0" style="text;html=1;align=center;verticalAlign=middle;whiteSpace=wrap;rounded=0;" vertex="1" parent="1">
          <mxGeometry x="610" y="475" width="20" height="10" as="geometry" />
        </mxCell>
        <mxCell id="TGHZwT-StXT5-AxZotV--34" value="&lt;div style=&quot;text-align: center;&quot;&gt;instruction&lt;/div&gt;" style="text;whiteSpace=wrap;html=1;" vertex="1" parent="1">
          <mxGeometry x="590" y="500" width="60" height="40" as="geometry" />
        </mxCell>
        <mxCell id="TGHZwT-StXT5-AxZotV--36" value="Immediate generator" style="ellipse;whiteSpace=wrap;html=1;" vertex="1" parent="1">
          <mxGeometry x="810" y="720" width="80" height="120" as="geometry" />
        </mxCell>
        <mxCell id="TGHZwT-StXT5-AxZotV--38" value="" style="whiteSpace=wrap;html=1;aspect=fixed;" vertex="1" parent="1">
          <mxGeometry x="770" y="395" width="205" height="205" as="geometry" />
        </mxCell>
        <mxCell id="TGHZwT-StXT5-AxZotV--39" value="" style="triangle;whiteSpace=wrap;html=1;" vertex="1" parent="1">
          <mxGeometry x="770" y="580" width="20" height="20" as="geometry" />
        </mxCell>
        <mxCell id="TGHZwT-StXT5-AxZotV--40" value="" style="ellipse;whiteSpace=wrap;html=1;aspect=fixed;" vertex="1" parent="1">
          <mxGeometry x="780" y="600" width="10" height="10" as="geometry" />
        </mxCell>
        <mxCell id="TGHZwT-StXT5-AxZotV--41" value="" style="shape=waypoint;sketch=0;fillStyle=solid;size=6;pointerEvents=1;points=[];fillColor=none;resizable=0;rotatable=0;perimeter=centerPerimeter;snapToPoint=1;" vertex="1" parent="1">
          <mxGeometry x="640" y="485" width="20" height="20" as="geometry" />
        </mxCell>
        <mxCell id="TGHZwT-StXT5-AxZotV--42" value="" style="endArrow=classic;html=1;rounded=0;exitX=0.517;exitY=0.817;exitDx=0;exitDy=0;exitPerimeter=0;entryX=0;entryY=0.5;entryDx=0;entryDy=0;" edge="1" parent="1" source="TGHZwT-StXT5-AxZotV--41" target="TGHZwT-StXT5-AxZotV--36">
          <mxGeometry width="50" height="50" relative="1" as="geometry">
            <mxPoint x="590" y="610" as="sourcePoint" />
            <mxPoint x="640" y="560" as="targetPoint" />
            <Array as="points">
              <mxPoint x="650" y="780" />
            </Array>
          </mxGeometry>
        </mxCell>
        <mxCell id="TGHZwT-StXT5-AxZotV--43" value="" style="endArrow=none;html=1;rounded=0;" edge="1" parent="1">
          <mxGeometry width="50" height="50" relative="1" as="geometry">
            <mxPoint x="750" y="790" as="sourcePoint" />
            <mxPoint x="770" y="770" as="targetPoint" />
          </mxGeometry>
        </mxCell>
        <mxCell id="TGHZwT-StXT5-AxZotV--44" value="31:0" style="text;html=1;align=center;verticalAlign=middle;whiteSpace=wrap;rounded=0;" vertex="1" parent="1">
          <mxGeometry x="750" y="750" width="20" height="10" as="geometry" />
        </mxCell>
        <mxCell id="TGHZwT-StXT5-AxZotV--53" style="edgeStyle=orthogonalEdgeStyle;rounded=0;orthogonalLoop=1;jettySize=auto;html=1;exitX=0.5;exitY=1;exitDx=0;exitDy=0;" edge="1" parent="1" source="TGHZwT-StXT5-AxZotV--45" target="TGHZwT-StXT5-AxZotV--38">
          <mxGeometry relative="1" as="geometry" />
        </mxCell>
        <mxCell id="TGHZwT-StXT5-AxZotV--97" style="edgeStyle=orthogonalEdgeStyle;rounded=0;orthogonalLoop=1;jettySize=auto;html=1;entryX=0;entryY=0.5;entryDx=0;entryDy=0;" edge="1" parent="1" source="TGHZwT-StXT5-AxZotV--45" target="TGHZwT-StXT5-AxZotV--55">
          <mxGeometry relative="1" as="geometry">
            <Array as="points">
              <mxPoint x="1010" y="205" />
              <mxPoint x="1010" y="780" />
            </Array>
          </mxGeometry>
        </mxCell>
        <mxCell id="TGHZwT-StXT5-AxZotV--45" value="Control" style="ellipse;whiteSpace=wrap;html=1;" vertex="1" parent="1">
          <mxGeometry x="822.5" y="140" width="100" height="130" as="geometry" />
        </mxCell>
        <mxCell id="TGHZwT-StXT5-AxZotV--46" value="&lt;b&gt;Registers&lt;/b&gt;" style="text;html=1;align=center;verticalAlign=middle;whiteSpace=wrap;rounded=0;" vertex="1" parent="1">
          <mxGeometry x="915" y="570" width="60" height="30" as="geometry" />
        </mxCell>
        <mxCell id="TGHZwT-StXT5-AxZotV--47" value="Read register 1" style="text;html=1;align=left;verticalAlign=middle;whiteSpace=wrap;rounded=0;" vertex="1" parent="1">
          <mxGeometry x="780" y="410" width="60" height="30" as="geometry" />
        </mxCell>
        <mxCell id="TGHZwT-StXT5-AxZotV--48" value="Read register 2" style="text;html=1;align=left;verticalAlign=middle;whiteSpace=wrap;rounded=0;" vertex="1" parent="1">
          <mxGeometry x="780" y="460" width="60" height="30" as="geometry" />
        </mxCell>
        <mxCell id="TGHZwT-StXT5-AxZotV--49" value="Write register" style="text;html=1;align=left;verticalAlign=middle;whiteSpace=wrap;rounded=0;" vertex="1" parent="1">
          <mxGeometry x="780" y="510" width="60" height="30" as="geometry" />
        </mxCell>
        <mxCell id="TGHZwT-StXT5-AxZotV--50" value="Write data" style="text;html=1;align=left;verticalAlign=middle;whiteSpace=wrap;rounded=0;" vertex="1" parent="1">
          <mxGeometry x="780" y="550" width="60" height="30" as="geometry" />
        </mxCell>
        <mxCell id="TGHZwT-StXT5-AxZotV--51" value="Read data 1" style="text;html=1;align=center;verticalAlign=middle;whiteSpace=wrap;rounded=0;" vertex="1" parent="1">
          <mxGeometry x="915" y="440" width="60" height="30" as="geometry" />
        </mxCell>
        <mxCell id="TGHZwT-StXT5-AxZotV--52" value="Read data 2" style="text;html=1;align=center;verticalAlign=middle;whiteSpace=wrap;rounded=0;" vertex="1" parent="1">
          <mxGeometry x="915" y="495" width="60" height="30" as="geometry" />
        </mxCell>
        <mxCell id="TGHZwT-StXT5-AxZotV--54" value="reg_write" style="text;html=1;align=center;verticalAlign=middle;whiteSpace=wrap;rounded=0;" vertex="1" parent="1">
          <mxGeometry x="870" y="320" width="60" height="30" as="geometry" />
        </mxCell>
        <mxCell id="TGHZwT-StXT5-AxZotV--96" style="edgeStyle=orthogonalEdgeStyle;rounded=0;orthogonalLoop=1;jettySize=auto;html=1;exitX=0.5;exitY=0;exitDx=0;exitDy=0;entryX=1;entryY=0.5;entryDx=0;entryDy=0;" edge="1" parent="1" source="TGHZwT-StXT5-AxZotV--55" target="TGHZwT-StXT5-AxZotV--85">
          <mxGeometry relative="1" as="geometry">
            <Array as="points">
              <mxPoint x="1212" y="700" />
              <mxPoint x="1356" y="700" />
            </Array>
          </mxGeometry>
        </mxCell>
        <mxCell id="TGHZwT-StXT5-AxZotV--55" value="ALU&lt;div&gt;control&lt;/div&gt;" style="ellipse;whiteSpace=wrap;html=1;" vertex="1" parent="1">
          <mxGeometry x="1175" y="727.5" width="75" height="105" as="geometry" />
        </mxCell>
        <mxCell id="TGHZwT-StXT5-AxZotV--56" value="" style="shape=waypoint;sketch=0;fillStyle=solid;size=6;pointerEvents=1;points=[];fillColor=none;resizable=0;rotatable=0;perimeter=centerPerimeter;snapToPoint=1;" vertex="1" parent="1">
          <mxGeometry x="640" y="415" width="20" height="20" as="geometry" />
        </mxCell>
        <mxCell id="TGHZwT-StXT5-AxZotV--57" value="" style="shape=waypoint;sketch=0;fillStyle=solid;size=6;pointerEvents=1;points=[];fillColor=none;resizable=0;rotatable=0;perimeter=centerPerimeter;snapToPoint=1;" vertex="1" parent="1">
          <mxGeometry x="640" y="465" width="20" height="20" as="geometry" />
        </mxCell>
        <mxCell id="TGHZwT-StXT5-AxZotV--58" value="" style="shape=waypoint;sketch=0;fillStyle=solid;size=6;pointerEvents=1;points=[];fillColor=none;resizable=0;rotatable=0;perimeter=centerPerimeter;snapToPoint=1;" vertex="1" parent="1">
          <mxGeometry x="640" y="515" width="20" height="20" as="geometry" />
        </mxCell>
        <mxCell id="TGHZwT-StXT5-AxZotV--59" value="" style="endArrow=classic;html=1;rounded=0;exitX=0.61;exitY=0.331;exitDx=0;exitDy=0;exitPerimeter=0;entryX=0.004;entryY=0.147;entryDx=0;entryDy=0;entryPerimeter=0;" edge="1" parent="1" source="TGHZwT-StXT5-AxZotV--56" target="TGHZwT-StXT5-AxZotV--38">
          <mxGeometry width="50" height="50" relative="1" as="geometry">
            <mxPoint x="680" y="420" as="sourcePoint" />
            <mxPoint x="730" y="370" as="targetPoint" />
          </mxGeometry>
        </mxCell>
        <mxCell id="TGHZwT-StXT5-AxZotV--60" value="" style="endArrow=classic;html=1;rounded=0;exitX=0.61;exitY=0.331;exitDx=0;exitDy=0;exitPerimeter=0;entryX=0.004;entryY=0.147;entryDx=0;entryDy=0;entryPerimeter=0;" edge="1" parent="1">
          <mxGeometry width="50" height="50" relative="1" as="geometry">
            <mxPoint x="650" y="474.53" as="sourcePoint" />
            <mxPoint x="771" y="474.53" as="targetPoint" />
          </mxGeometry>
        </mxCell>
        <mxCell id="TGHZwT-StXT5-AxZotV--61" value="" style="endArrow=classic;html=1;rounded=0;exitX=0.61;exitY=0.331;exitDx=0;exitDy=0;exitPerimeter=0;entryX=0.004;entryY=0.147;entryDx=0;entryDy=0;entryPerimeter=0;" edge="1" parent="1">
          <mxGeometry width="50" height="50" relative="1" as="geometry">
            <mxPoint x="650" y="525" as="sourcePoint" />
            <mxPoint x="771" y="525" as="targetPoint" />
          </mxGeometry>
        </mxCell>
        <mxCell id="TGHZwT-StXT5-AxZotV--62" value="" style="endArrow=none;html=1;rounded=0;" edge="1" parent="1">
          <mxGeometry width="50" height="50" relative="1" as="geometry">
            <mxPoint x="700" y="435" as="sourcePoint" />
            <mxPoint x="720" y="415" as="targetPoint" />
          </mxGeometry>
        </mxCell>
        <mxCell id="TGHZwT-StXT5-AxZotV--63" value="19:15" style="text;html=1;align=center;verticalAlign=middle;whiteSpace=wrap;rounded=0;" vertex="1" parent="1">
          <mxGeometry x="700" y="400" width="20" height="10" as="geometry" />
        </mxCell>
        <mxCell id="TGHZwT-StXT5-AxZotV--64" value="" style="endArrow=none;html=1;rounded=0;" edge="1" parent="1">
          <mxGeometry width="50" height="50" relative="1" as="geometry">
            <mxPoint x="700" y="485" as="sourcePoint" />
            <mxPoint x="720" y="465" as="targetPoint" />
          </mxGeometry>
        </mxCell>
        <mxCell id="TGHZwT-StXT5-AxZotV--65" value="24:20" style="text;html=1;align=center;verticalAlign=middle;whiteSpace=wrap;rounded=0;" vertex="1" parent="1">
          <mxGeometry x="700" y="450" width="20" height="10" as="geometry" />
        </mxCell>
        <mxCell id="TGHZwT-StXT5-AxZotV--66" value="" style="endArrow=none;html=1;rounded=0;" edge="1" parent="1">
          <mxGeometry width="50" height="50" relative="1" as="geometry">
            <mxPoint x="700" y="535" as="sourcePoint" />
            <mxPoint x="720" y="515" as="targetPoint" />
          </mxGeometry>
        </mxCell>
        <mxCell id="TGHZwT-StXT5-AxZotV--67" value="11:7" style="text;html=1;align=center;verticalAlign=middle;whiteSpace=wrap;rounded=0;" vertex="1" parent="1">
          <mxGeometry x="700" y="500" width="20" height="10" as="geometry" />
        </mxCell>
        <mxCell id="TGHZwT-StXT5-AxZotV--68" value="" style="shape=waypoint;sketch=0;fillStyle=solid;size=6;pointerEvents=1;points=[];fillColor=none;resizable=0;rotatable=0;perimeter=centerPerimeter;snapToPoint=1;" vertex="1" parent="1">
          <mxGeometry x="710" y="770" width="20" height="20" as="geometry" />
        </mxCell>
        <mxCell id="TGHZwT-StXT5-AxZotV--69" value="" style="endArrow=classic;html=1;rounded=0;entryX=0.5;entryY=1;entryDx=0;entryDy=0;" edge="1" parent="1" target="TGHZwT-StXT5-AxZotV--55">
          <mxGeometry width="50" height="50" relative="1" as="geometry">
            <mxPoint x="720" y="780" as="sourcePoint" />
            <mxPoint x="770" y="730" as="targetPoint" />
            <Array as="points">
              <mxPoint x="720" y="880" />
              <mxPoint x="1073" y="880" />
              <mxPoint x="1213" y="880" />
            </Array>
          </mxGeometry>
        </mxCell>
        <mxCell id="TGHZwT-StXT5-AxZotV--71" value="" style="endArrow=none;html=1;rounded=0;" edge="1" parent="1">
          <mxGeometry width="50" height="50" relative="1" as="geometry">
            <mxPoint x="895" y="890" as="sourcePoint" />
            <mxPoint x="915" y="870" as="targetPoint" />
          </mxGeometry>
        </mxCell>
        <mxCell id="TGHZwT-StXT5-AxZotV--72" value="30, 14-12" style="text;html=1;align=center;verticalAlign=middle;whiteSpace=wrap;rounded=0;" vertex="1" parent="1">
          <mxGeometry x="880" y="850" width="60" height="10" as="geometry" />
        </mxCell>
        <mxCell id="TGHZwT-StXT5-AxZotV--73" value="" style="endArrow=none;html=1;rounded=0;" edge="1" parent="1">
          <mxGeometry width="50" height="50" relative="1" as="geometry">
            <mxPoint x="740" y="215" as="sourcePoint" />
            <mxPoint x="760" y="195" as="targetPoint" />
          </mxGeometry>
        </mxCell>
        <mxCell id="TGHZwT-StXT5-AxZotV--74" value="6:0" style="text;html=1;align=center;verticalAlign=middle;whiteSpace=wrap;rounded=0;" vertex="1" parent="1">
          <mxGeometry x="740" y="180" width="20" height="10" as="geometry" />
        </mxCell>
        <mxCell id="TGHZwT-StXT5-AxZotV--75" value="opcode" style="text;html=1;align=center;verticalAlign=middle;whiteSpace=wrap;rounded=0;" vertex="1" parent="1">
          <mxGeometry x="720" y="210" width="60" height="30" as="geometry" />
        </mxCell>
        <mxCell id="TGHZwT-StXT5-AxZotV--76" value="funct7[6], funct3" style="text;html=1;align=center;verticalAlign=middle;whiteSpace=wrap;rounded=0;" vertex="1" parent="1">
          <mxGeometry x="865" y="890" width="90" height="30" as="geometry" />
        </mxCell>
        <mxCell id="TGHZwT-StXT5-AxZotV--82" value="" style="shape=stencil(XVPJrqNADPwa7gToJhzZmiUQlgAh3BoStrAvAd7XT0dvNIeRLLvLarssuUyxcrs3VTrh6aBYlaJFiqG/BiSKlyiG2duGeIoleaaO3HQajQ25NH4PrW4fb6T6Z+EiPSUxQiLLDaGnal5UAYohxcj3d9B6r6A2h3Y8hOiTr+n0ucjh5OPgPtJdmHBgC5rhKE5aZPonn5Zn8KP0xgx6D0kHKt6cO16PiTQL3xrC3VGTJ7DFnfM04J3PdnWVsPlLJyeXCveyyi3zcLAk4T34SmhUzMcintMu7jgtf6trti6+/hH0PC32z7g/6I+vOOVJ8mRFk2fFEWBbYqjmqgVCf+CBrgq2eAnWpACnU3gHF6xjz53PgoMqwmwevLTcx7O5SOIoMFkLhhZGhD4xFLEnMWtXJo3WbNy2+ifOrUqYu3fSGo92be50I09keOnZr7oRopgrjnMgDdadaTnmamzNGr+qNe470lESWl+F12R3+YvZYO5A09qhhl3AGq2Bb/nuTbht/sE/HKNIPabm+fMTauBurBNjnBYYgCLjHPjdrPSwLrDMhIJRUDMfpf8ikzqmk9kXzKT98nad0qzIXn1dFjC/txAyOW3q8iN/Mjl/y0DQQLpG1TVkudFLpwRmXUwDS+3FymDNPYeG7y51qrl5Z8kJWFqkz5FTnFz6xyJctgwbKXC9os03AvHBDVPNn8r+A1faUpIMDXXI213R5epO5r2lRl9Z23yjpZaoUTLcuDymBTU2zWqJLfX2oJQW3T1LmNGlPacm+11OHpU/K46DuiMkiiXcSFg6onG0axvFKl8jAmdk4rdfqbP0Lyx/IfwL8Ty8suXfNeTV/np+Ea9QQPleDkt+of/O6Q8=);whiteSpace=wrap;html=1;" vertex="1" parent="1">
          <mxGeometry x="40" y="940" width="120" height="120" as="geometry" />
        </mxCell>
        <mxCell id="TGHZwT-StXT5-AxZotV--95" style="edgeStyle=orthogonalEdgeStyle;rounded=0;orthogonalLoop=1;jettySize=auto;html=1;exitX=1;exitY=0.5;exitDx=0;exitDy=0;entryX=0.171;entryY=1.002;entryDx=0;entryDy=0;entryPerimeter=0;" edge="1" parent="1" source="TGHZwT-StXT5-AxZotV--51" target="TGHZwT-StXT5-AxZotV--85">
          <mxGeometry relative="1" as="geometry" />
        </mxCell>
        <mxCell id="TGHZwT-StXT5-AxZotV--98" value="" style="endArrow=none;html=1;rounded=0;" edge="1" parent="1">
          <mxGeometry width="50" height="50" relative="1" as="geometry">
            <mxPoint x="1130" y="790" as="sourcePoint" />
            <mxPoint x="1150" y="770" as="targetPoint" />
          </mxGeometry>
        </mxCell>
        <mxCell id="TGHZwT-StXT5-AxZotV--99" value="1:0" style="text;html=1;align=center;verticalAlign=middle;whiteSpace=wrap;rounded=0;" vertex="1" parent="1">
          <mxGeometry x="1130" y="750" width="20" height="10" as="geometry" />
        </mxCell>
        <mxCell id="TGHZwT-StXT5-AxZotV--100" value="ALU_op" style="text;html=1;align=center;verticalAlign=middle;whiteSpace=wrap;rounded=0;" vertex="1" parent="1">
          <mxGeometry x="1110" y="790" width="60" height="30" as="geometry" />
        </mxCell>
        <mxCell id="TGHZwT-StXT5-AxZotV--101" value="" style="endArrow=none;html=1;rounded=0;" edge="1" parent="1">
          <mxGeometry width="50" height="50" relative="1" as="geometry">
            <mxPoint x="1270" y="712.5" as="sourcePoint" />
            <mxPoint x="1300" y="680" as="targetPoint" />
          </mxGeometry>
        </mxCell>
        <mxCell id="TGHZwT-StXT5-AxZotV--102" value="3:0" style="text;html=1;align=center;verticalAlign=middle;whiteSpace=wrap;rounded=0;" vertex="1" parent="1">
          <mxGeometry x="1270" y="670" width="20" height="10" as="geometry" />
        </mxCell>
        <mxCell id="TGHZwT-StXT5-AxZotV--103" value="ALU_control" style="text;html=1;align=center;verticalAlign=middle;whiteSpace=wrap;rounded=0;" vertex="1" parent="1">
          <mxGeometry x="1250" y="710" width="60" height="30" as="geometry" />
        </mxCell>
        <mxCell id="TGHZwT-StXT5-AxZotV--104" value="MUX" style="shape=trapezoid;perimeter=trapezoidPerimeter;whiteSpace=wrap;html=1;fixedSize=1;rotation=90;" vertex="1" parent="1">
          <mxGeometry x="1050" y="515" width="80" height="40" as="geometry" />
        </mxCell>
        <mxCell id="TGHZwT-StXT5-AxZotV--105" style="edgeStyle=orthogonalEdgeStyle;rounded=0;orthogonalLoop=1;jettySize=auto;html=1;exitX=0.5;exitY=0;exitDx=0;exitDy=0;entryX=0.827;entryY=1.009;entryDx=0;entryDy=0;entryPerimeter=0;" edge="1" parent="1" source="TGHZwT-StXT5-AxZotV--104" target="TGHZwT-StXT5-AxZotV--85">
          <mxGeometry relative="1" as="geometry" />
        </mxCell>
        <mxCell id="TGHZwT-StXT5-AxZotV--107" style="edgeStyle=orthogonalEdgeStyle;rounded=0;orthogonalLoop=1;jettySize=auto;html=1;exitX=1;exitY=0.5;exitDx=0;exitDy=0;entryX=0.664;entryY=1.008;entryDx=0;entryDy=0;entryPerimeter=0;jumpStyle=arc;" edge="1" parent="1" source="TGHZwT-StXT5-AxZotV--36" target="TGHZwT-StXT5-AxZotV--104">
          <mxGeometry relative="1" as="geometry">
            <Array as="points">
              <mxPoint x="940" y="780" />
              <mxPoint x="940" y="740" />
              <mxPoint x="1040" y="740" />
              <mxPoint x="1040" y="548" />
            </Array>
          </mxGeometry>
        </mxCell>
        <mxCell id="TGHZwT-StXT5-AxZotV--108" value="" style="endArrow=classic;html=1;rounded=0;entryX=0;entryY=0.5;entryDx=0;entryDy=0;exitX=0.945;exitY=0.688;exitDx=0;exitDy=0;exitPerimeter=0;jumpStyle=arc;" edge="1" parent="1" source="TGHZwT-StXT5-AxZotV--45" target="TGHZwT-StXT5-AxZotV--104">
          <mxGeometry width="50" height="50" relative="1" as="geometry">
            <mxPoint x="920" y="230" as="sourcePoint" />
            <mxPoint x="970" y="180" as="targetPoint" />
            <Array as="points">
              <mxPoint x="1090" y="230" />
            </Array>
          </mxGeometry>
        </mxCell>
        <mxCell id="TGHZwT-StXT5-AxZotV--109" value="ALU_src" style="text;html=1;align=center;verticalAlign=middle;whiteSpace=wrap;rounded=0;" vertex="1" parent="1">
          <mxGeometry x="1020" y="200" width="60" height="30" as="geometry" />
        </mxCell>
        <mxCell id="TGHZwT-StXT5-AxZotV--85" value="" style="shape=trapezoid;perimeter=trapezoidPerimeter;whiteSpace=wrap;html=1;fixedSize=1;rotation=90;fillColor=none;" vertex="1" parent="1">
          <mxGeometry x="1296.25" y="428.75" width="120" height="132.5" as="geometry" />
        </mxCell>
        <mxCell id="TGHZwT-StXT5-AxZotV--86" value="" style="triangle;whiteSpace=wrap;html=1;fillColor=none;" vertex="1" parent="1">
          <mxGeometry x="1290" y="472.5" width="40" height="45" as="geometry" />
        </mxCell>
        <mxCell id="TGHZwT-StXT5-AxZotV--94" value="ALU" style="text;html=1;align=center;verticalAlign=middle;whiteSpace=wrap;rounded=0;" vertex="1" parent="1">
          <mxGeometry x="1330" y="480" width="60" height="30" as="geometry" />
        </mxCell>
        <mxCell id="TGHZwT-StXT5-AxZotV--111" value="Zero" style="text;html=1;align=center;verticalAlign=middle;whiteSpace=wrap;rounded=0;fontFamily=Helvetica;fontSize=12;fontColor=default;" vertex="1" parent="1">
          <mxGeometry x="1390" y="465" width="30" height="15" as="geometry" />
        </mxCell>
        <mxCell id="TGHZwT-StXT5-AxZotV--112" value="ALU result" style="text;html=1;align=center;verticalAlign=middle;whiteSpace=wrap;rounded=0;fontFamily=Helvetica;fontSize=12;fontColor=default;" vertex="1" parent="1">
          <mxGeometry x="1385" y="505" width="40" height="20" as="geometry" />
        </mxCell>
        <mxCell id="TGHZwT-StXT5-AxZotV--118" value="" style="endArrow=none;html=1;rounded=0;fontFamily=Helvetica;fontSize=12;fontColor=default;entryX=0.318;entryY=1.004;entryDx=0;entryDy=0;entryPerimeter=0;exitX=0.685;exitY=1.002;exitDx=0;exitDy=0;exitPerimeter=0;strokeColor=#ffffff;" edge="1" parent="1" source="TGHZwT-StXT5-AxZotV--85" target="TGHZwT-StXT5-AxZotV--85">
          <mxGeometry width="50" height="50" relative="1" as="geometry">
            <mxPoint x="1230" y="520" as="sourcePoint" />
            <mxPoint x="1280" y="470" as="targetPoint" />
          </mxGeometry>
        </mxCell>
        <mxCell id="TGHZwT-StXT5-AxZotV--154" style="edgeStyle=orthogonalEdgeStyle;rounded=0;orthogonalLoop=1;jettySize=auto;html=1;exitX=1;exitY=0.25;exitDx=0;exitDy=0;entryX=0.2;entryY=0.5;entryDx=0;entryDy=0;fontFamily=Helvetica;fontSize=12;fontColor=default;entryPerimeter=0;" edge="1" parent="1" source="TGHZwT-StXT5-AxZotV--119" target="TGHZwT-StXT5-AxZotV--151">
          <mxGeometry relative="1" as="geometry">
            <Array as="points">
              <mxPoint x="1720" y="640" />
              <mxPoint x="1720" y="550" />
            </Array>
          </mxGeometry>
        </mxCell>
        <mxCell id="TGHZwT-StXT5-AxZotV--119" value="Data Memory" style="rounded=0;whiteSpace=wrap;html=1;" vertex="1" parent="1">
          <mxGeometry x="1530" y="590" width="160" height="200" as="geometry" />
        </mxCell>
        <mxCell id="TGHZwT-StXT5-AxZotV--121" value="" style="triangle;whiteSpace=wrap;html=1;" vertex="1" parent="1">
          <mxGeometry x="1530" y="770" width="20" height="20" as="geometry" />
        </mxCell>
        <mxCell id="TGHZwT-StXT5-AxZotV--122" value="" style="ellipse;whiteSpace=wrap;html=1;aspect=fixed;" vertex="1" parent="1">
          <mxGeometry x="1540" y="790" width="10" height="10" as="geometry" />
        </mxCell>
        <mxCell id="TGHZwT-StXT5-AxZotV--126" value="" style="endArrow=classic;html=1;rounded=0;fontFamily=Helvetica;fontSize=12;fontColor=default;entryX=-0.007;entryY=0.783;entryDx=0;entryDy=0;entryPerimeter=0;jumpStyle=arc;" edge="1" parent="1" source="TGHZwT-StXT5-AxZotV--129" target="TGHZwT-StXT5-AxZotV--119">
          <mxGeometry width="50" height="50" relative="1" as="geometry">
            <mxPoint x="1200" y="540" as="sourcePoint" />
            <mxPoint x="1523.48" y="747.3999999999999" as="targetPoint" />
            <Array as="points">
              <mxPoint x="1035" y="590" />
              <mxPoint x="1200" y="590" />
              <mxPoint x="1440" y="590" />
              <mxPoint x="1440" y="747" />
            </Array>
          </mxGeometry>
        </mxCell>
        <mxCell id="TGHZwT-StXT5-AxZotV--127" value="Write&lt;div&gt;data&lt;/div&gt;" style="text;html=1;align=center;verticalAlign=middle;whiteSpace=wrap;rounded=0;" vertex="1" parent="1">
          <mxGeometry x="1530" y="730" width="60" height="30" as="geometry" />
        </mxCell>
        <mxCell id="TGHZwT-StXT5-AxZotV--129" value="" style="shape=waypoint;sketch=0;fillStyle=solid;size=6;pointerEvents=1;points=[];fillColor=none;resizable=0;rotatable=0;perimeter=centerPerimeter;snapToPoint=1;align=center;verticalAlign=top;fontFamily=Helvetica;fontSize=12;fontColor=default;" vertex="1" parent="1">
          <mxGeometry x="1025" y="505" width="20" height="20" as="geometry" />
        </mxCell>
        <mxCell id="TGHZwT-StXT5-AxZotV--106" style="edgeStyle=orthogonalEdgeStyle;rounded=0;orthogonalLoop=1;jettySize=auto;html=1;exitX=1;exitY=0.75;exitDx=0;exitDy=0;entryX=0.279;entryY=1.016;entryDx=0;entryDy=0;entryPerimeter=0;" edge="1" parent="1" source="TGHZwT-StXT5-AxZotV--52" target="TGHZwT-StXT5-AxZotV--104">
          <mxGeometry relative="1" as="geometry" />
        </mxCell>
        <mxCell id="TGHZwT-StXT5-AxZotV--131" value="" style="endArrow=none;html=1;rounded=0;" edge="1" parent="1">
          <mxGeometry width="50" height="50" relative="1" as="geometry">
            <mxPoint x="980" y="525" as="sourcePoint" />
            <mxPoint x="1000" y="505" as="targetPoint" />
          </mxGeometry>
        </mxCell>
        <mxCell id="TGHZwT-StXT5-AxZotV--132" value="31:0" style="text;html=1;align=center;verticalAlign=middle;whiteSpace=wrap;rounded=0;" vertex="1" parent="1">
          <mxGeometry x="980" y="485" width="20" height="10" as="geometry" />
        </mxCell>
        <mxCell id="TGHZwT-StXT5-AxZotV--133" value="" style="endArrow=none;html=1;rounded=0;" edge="1" parent="1">
          <mxGeometry width="50" height="50" relative="1" as="geometry">
            <mxPoint x="980" y="465" as="sourcePoint" />
            <mxPoint x="1000" y="445" as="targetPoint" />
          </mxGeometry>
        </mxCell>
        <mxCell id="TGHZwT-StXT5-AxZotV--134" value="31:0" style="text;html=1;align=center;verticalAlign=middle;whiteSpace=wrap;rounded=0;" vertex="1" parent="1">
          <mxGeometry x="980" y="425" width="20" height="10" as="geometry" />
        </mxCell>
        <mxCell id="TGHZwT-StXT5-AxZotV--137" value="" style="endArrow=none;html=1;rounded=0;" edge="1" parent="1">
          <mxGeometry width="50" height="50" relative="1" as="geometry">
            <mxPoint x="960" y="750" as="sourcePoint" />
            <mxPoint x="980" y="730" as="targetPoint" />
          </mxGeometry>
        </mxCell>
        <mxCell id="TGHZwT-StXT5-AxZotV--138" value="31:0" style="text;html=1;align=center;verticalAlign=middle;whiteSpace=wrap;rounded=0;" vertex="1" parent="1">
          <mxGeometry x="960" y="710" width="20" height="10" as="geometry" />
        </mxCell>
        <mxCell id="TGHZwT-StXT5-AxZotV--139" value="immediate_sign_extended" style="text;html=1;align=center;verticalAlign=middle;whiteSpace=wrap;rounded=0;fontFamily=Helvetica;fontSize=12;fontColor=default;" vertex="1" parent="1">
          <mxGeometry x="850" y="675" width="150" height="30" as="geometry" />
        </mxCell>
        <mxCell id="TGHZwT-StXT5-AxZotV--140" value="&lt;div&gt;Address&lt;/div&gt;" style="text;html=1;align=center;verticalAlign=middle;whiteSpace=wrap;rounded=0;" vertex="1" parent="1">
          <mxGeometry x="1530" y="620" width="60" height="30" as="geometry" />
        </mxCell>
        <mxCell id="TGHZwT-StXT5-AxZotV--141" value="" style="endArrow=classic;html=1;rounded=0;fontFamily=Helvetica;fontSize=12;fontColor=default;exitX=0.947;exitY=0.534;exitDx=0;exitDy=0;exitPerimeter=0;entryX=0;entryY=0.5;entryDx=0;entryDy=0;" edge="1" parent="1" source="TGHZwT-StXT5-AxZotV--112" target="TGHZwT-StXT5-AxZotV--140">
          <mxGeometry width="50" height="50" relative="1" as="geometry">
            <mxPoint x="1440" y="530" as="sourcePoint" />
            <mxPoint x="1490" y="480" as="targetPoint" />
            <Array as="points">
              <mxPoint x="1460" y="516" />
              <mxPoint x="1460" y="635" />
            </Array>
          </mxGeometry>
        </mxCell>
        <mxCell id="TGHZwT-StXT5-AxZotV--142" value="" style="endArrow=none;html=1;rounded=0;" edge="1" parent="1">
          <mxGeometry width="50" height="50" relative="1" as="geometry">
            <mxPoint x="1480" y="645" as="sourcePoint" />
            <mxPoint x="1500" y="625" as="targetPoint" />
          </mxGeometry>
        </mxCell>
        <mxCell id="TGHZwT-StXT5-AxZotV--143" value="31:0" style="text;html=1;align=center;verticalAlign=middle;whiteSpace=wrap;rounded=0;" vertex="1" parent="1">
          <mxGeometry x="1480" y="610" width="20" height="10" as="geometry" />
        </mxCell>
        <mxCell id="TGHZwT-StXT5-AxZotV--144" value="" style="endArrow=none;html=1;rounded=0;" edge="1" parent="1">
          <mxGeometry width="50" height="50" relative="1" as="geometry">
            <mxPoint x="1470" y="755" as="sourcePoint" />
            <mxPoint x="1490" y="735" as="targetPoint" />
          </mxGeometry>
        </mxCell>
        <mxCell id="TGHZwT-StXT5-AxZotV--145" value="31:0" style="text;html=1;align=center;verticalAlign=middle;whiteSpace=wrap;rounded=0;" vertex="1" parent="1">
          <mxGeometry x="1470" y="720" width="20" height="10" as="geometry" />
        </mxCell>
        <mxCell id="TGHZwT-StXT5-AxZotV--147" value="0" style="text;html=1;align=center;verticalAlign=middle;whiteSpace=wrap;rounded=0;fontFamily=Helvetica;fontSize=12;fontColor=default;" vertex="1" parent="1">
          <mxGeometry x="1065" y="510" width="25" height="10" as="geometry" />
        </mxCell>
        <mxCell id="TGHZwT-StXT5-AxZotV--148" value="1" style="text;html=1;align=center;verticalAlign=middle;whiteSpace=wrap;rounded=0;fontFamily=Helvetica;fontSize=12;fontColor=default;" vertex="1" parent="1">
          <mxGeometry x="1065" y="540" width="25" height="10" as="geometry" />
        </mxCell>
        <mxCell id="TGHZwT-StXT5-AxZotV--149" value="MUX" style="shape=trapezoid;perimeter=trapezoidPerimeter;whiteSpace=wrap;html=1;fixedSize=1;rotation=90;" vertex="1" parent="1">
          <mxGeometry x="1750" y="520" width="80" height="40" as="geometry" />
        </mxCell>
        <mxCell id="TGHZwT-StXT5-AxZotV--150" value="0" style="text;html=1;align=center;verticalAlign=middle;whiteSpace=wrap;rounded=0;fontFamily=Helvetica;fontSize=12;fontColor=default;" vertex="1" parent="1">
          <mxGeometry x="1765" y="515" width="25" height="10" as="geometry" />
        </mxCell>
        <mxCell id="TGHZwT-StXT5-AxZotV--151" value="1" style="text;html=1;align=center;verticalAlign=middle;whiteSpace=wrap;rounded=0;fontFamily=Helvetica;fontSize=12;fontColor=default;" vertex="1" parent="1">
          <mxGeometry x="1765" y="545" width="25" height="10" as="geometry" />
        </mxCell>
        <mxCell id="TGHZwT-StXT5-AxZotV--152" value="" style="shape=waypoint;sketch=0;fillStyle=solid;size=6;pointerEvents=1;points=[];fillColor=none;resizable=0;rotatable=0;perimeter=centerPerimeter;snapToPoint=1;align=center;verticalAlign=top;fontFamily=Helvetica;fontSize=12;fontColor=default;" vertex="1" parent="1">
          <mxGeometry x="1450" y="505" width="20" height="20" as="geometry" />
        </mxCell>
        <mxCell id="TGHZwT-StXT5-AxZotV--153" value="" style="endArrow=classic;html=1;rounded=0;fontFamily=Helvetica;fontSize=12;fontColor=default;" edge="1" parent="1" source="TGHZwT-StXT5-AxZotV--152">
          <mxGeometry width="50" height="50" relative="1" as="geometry">
            <mxPoint x="1520" y="530" as="sourcePoint" />
            <mxPoint x="1770" y="520" as="targetPoint" />
          </mxGeometry>
        </mxCell>
        <mxCell id="TGHZwT-StXT5-AxZotV--155" value="" style="endArrow=none;html=1;rounded=0;" edge="1" parent="1">
          <mxGeometry width="50" height="50" relative="1" as="geometry">
            <mxPoint x="1730" y="560" as="sourcePoint" />
            <mxPoint x="1750" y="540" as="targetPoint" />
          </mxGeometry>
        </mxCell>
        <mxCell id="TGHZwT-StXT5-AxZotV--156" value="31:0" style="text;html=1;align=center;verticalAlign=middle;whiteSpace=wrap;rounded=0;" vertex="1" parent="1">
          <mxGeometry x="1730" y="525" width="20" height="10" as="geometry" />
        </mxCell>
        <mxCell id="TGHZwT-StXT5-AxZotV--157" value="Read&lt;div&gt;data&lt;/div&gt;" style="text;html=1;align=center;verticalAlign=middle;whiteSpace=wrap;rounded=0;" vertex="1" parent="1">
          <mxGeometry x="1630" y="620" width="60" height="30" as="geometry" />
        </mxCell>
        <mxCell id="TGHZwT-StXT5-AxZotV--158" style="edgeStyle=orthogonalEdgeStyle;rounded=0;orthogonalLoop=1;jettySize=auto;html=1;exitX=0.5;exitY=0;exitDx=0;exitDy=0;entryX=0;entryY=0.854;entryDx=0;entryDy=0;entryPerimeter=0;fontFamily=Helvetica;fontSize=12;fontColor=default;jumpStyle=arc;" edge="1" parent="1" source="TGHZwT-StXT5-AxZotV--149" target="TGHZwT-StXT5-AxZotV--38">
          <mxGeometry relative="1" as="geometry">
            <Array as="points">
              <mxPoint x="1910" y="540" />
              <mxPoint x="1910" y="950" />
              <mxPoint x="620" y="950" />
              <mxPoint x="620" y="570" />
            </Array>
          </mxGeometry>
        </mxCell>
        <mxCell id="TGHZwT-StXT5-AxZotV--161" value="" style="endArrow=none;html=1;rounded=0;" edge="1" parent="1">
          <mxGeometry width="50" height="50" relative="1" as="geometry">
            <mxPoint x="1840" y="550" as="sourcePoint" />
            <mxPoint x="1860" y="530" as="targetPoint" />
          </mxGeometry>
        </mxCell>
        <mxCell id="TGHZwT-StXT5-AxZotV--162" value="31:0" style="text;html=1;align=center;verticalAlign=middle;whiteSpace=wrap;rounded=0;" vertex="1" parent="1">
          <mxGeometry x="1840" y="510" width="20" height="10" as="geometry" />
        </mxCell>
        <mxCell id="TGHZwT-StXT5-AxZotV--163" value="" style="endArrow=classic;html=1;rounded=0;fontFamily=Helvetica;fontSize=12;fontColor=default;exitX=0.984;exitY=0.358;exitDx=0;exitDy=0;exitPerimeter=0;entryX=0;entryY=0.5;entryDx=0;entryDy=0;" edge="1" parent="1" source="TGHZwT-StXT5-AxZotV--45" target="TGHZwT-StXT5-AxZotV--149">
          <mxGeometry width="50" height="50" relative="1" as="geometry">
            <mxPoint x="960" y="170" as="sourcePoint" />
            <mxPoint x="1010" y="120" as="targetPoint" />
            <Array as="points">
              <mxPoint x="1790" y="180" />
            </Array>
          </mxGeometry>
        </mxCell>
        <mxCell id="TGHZwT-StXT5-AxZotV--164" value="mem_to_reg" style="text;html=1;align=center;verticalAlign=middle;whiteSpace=wrap;rounded=0;rotation=90;" vertex="1" parent="1">
          <mxGeometry x="1747.5" y="425" width="60" height="30" as="geometry" />
        </mxCell>
      </root>
    </mxGraphModel>
  </diagram>
</mxfile>
